# xmcd CD database file
#
# Track frame offsets:
#	182
#	42707
#	66032
#	90182
#	121945
#	142682
#	164807
#	191582
#	202232
#
# Disc length: 3244 seconds
#
# Revision: 0
# Processed by: cddbd v1.4PL0 Copyright (c) Steve Scherf et al.
# Submitted via: CDex 1.50
#
DISCID=7f0caa09
DTITLE=Paul B. Clement - Bottle Full
DYEAR=1996
DGENRE=Jazz
TTITLE0=Bottleful'
TTITLE1=Tommi
TTITLE2=Lissy Blue
TTITLE3=Lady Lake
TTITLE4=Where It Hurts
TTITLE5=Reflects
TTITLE6=Jose De Gardene
TTITLE7=Bottleful' Reprise
TTITLE8=I Wish I Was D' Fish
EXTD=YEAR: 1996
EXTT0=
EXTT1=
EXTT2=
EXTT3=
EXTT4=
EXTT5=
EXTT6=
EXTT7=
EXTT8=
PLAYORDER=
